<?xml version="1.0" encoding="utf-8"?>
<!-- Generator: Adobe Illustrator 23.0.0, SVG Export Plug-In . SVG Version: 6.00 Build 0)  -->
<svg version="1.1" xmlns="http://www.w3.org/2000/svg" xmlns:xlink="http://www.w3.org/1999/xlink" x="0px" y="0px"
	 viewBox="0 0 283.5 283.5" style="enable-background:new 0 0 283.5 283.5;" xml:space="preserve">
<style type="text/css">
	.st0{fill-rule:evenodd;clip-rule:evenodd;fill:#FFFFFF;}
	.st1{fill-rule:evenodd;clip-rule:evenodd;fill:#720000;}
</style>
<g id="Слой_2">
	<rect x="36.9" y="46" class="st0" width="199.4" height="162.2"/>
</g>
<g id="Layer_1">
	<path class="st1" d="M185.3,0h-87C18.8,0,0,18.8,0,98.2v87c0,79.4,18.8,98.2,98.2,98.2h87c79.4,0,98.2-18.8,98.2-98.2v-87
		C283.5,18.8,264.5,0,185.3,0z M228.9,202.3h-20.6c-7.8,0-10.2-6.2-24.2-20.4c-12.2-11.8-17.6-13.4-20.6-13.4c-4.2,0-5.4,1.2-5.4,7
		v18.6c0,5-1.6,8-14.8,8c-21.8,0-46-13.2-63-37.8c-25.6-36-32.6-63-32.6-68.6c0-3,1.2-5.8,7-5.8h20.6c5.2,0,7.2,2.4,9.2,8
		c10.2,29.4,27.2,55.2,34.2,55.2c2.6,0,3.8-1.2,3.8-7.8v-30.4c-0.8-14-8.2-15.2-8.2-20.2c0-2.4,2-4.8,5.2-4.8h32.4
		c4.4,0,6,2.4,6,7.6v41c0,4.4,2,6,3.2,6c2.6,0,4.8-1.6,9.6-6.4c14.8-16.6,25.4-42.2,25.4-42.2c1.4-3,3.8-5.8,9-5.8h20.6
		c6.2,0,7.6,3.2,6.2,7.6c-2.6,12-27.8,47.6-27.8,47.6c-2.2,3.6-3,5.2,0,9.2c2.2,3,9.4,9.2,14.2,14.8c8.8,10,15.6,18.4,17.4,24.2
		C237.7,199.3,234.7,202.3,228.9,202.3z"/>
	<path class="st0" d="M68.2,254.8L68.2,254.8c-6.7,0-12.1-5.4-12.1-12.1v-34.2c0-6.7,5.4-12.1,12.1-12.1l0,0
		c6.7,0,12.1,5.4,12.1,12.1v34.2C80.3,249.4,74.9,254.8,68.2,254.8z"/>
	<path class="st0" d="M99.6,254.8L99.6,254.8c-6.7,0-12.1-5.4-12.1-12.1v-25.2c0-6.7,5.4-12.1,12.1-12.1l0,0
		c6.7,0,12.1,5.4,12.1,12.1v25.2C111.7,249.4,106.3,254.8,99.6,254.8z"/>
	<path class="st0" d="M129.8,254.8L129.8,254.8c-6.7,0-12.1-5.4-12.1-12.1v-15c0-6.7,5.4-12.1,12.1-12.1l0,0
		c6.7,0,12.1,5.4,12.1,12.1v15C142,249.4,136.5,254.8,129.8,254.8z"/>
	<path class="st0" d="M159.8,254.8L159.8,254.8c-6.7,0-12.1-5.4-12.1-12.1V222c0-6.7,5.4-12.1,12.1-12.1l0,0
		c6.7,0,12.1,5.4,12.1,12.1v20.7C171.9,249.4,166.5,254.8,159.8,254.8z"/>
	<path class="st0" d="M189,255L189,255c-6.7,0-12.1-5.4-12.1-12.1v-25.5c0-6.7,5.4-12.1,12.1-12.1l0,0c6.7,0,12.1,5.4,12.1,12.1
		v25.5C201.2,249.6,195.7,255,189,255z"/>
	<path class="st0" d="M218.7,254.8L218.7,254.8c-6.7,0-12.1-5.4-12.1-12.1v-9.6c0-6.7,5.4-12.1,12.1-12.1l0,0
		c6.7,0,12.1,5.4,12.1,12.1v9.6C230.9,249.4,225.4,254.8,218.7,254.8z"/>
	<path class="st0" d="M36.9,254.8L36.9,254.8c-6.7,0-12.1-5.4-12.1-12.1v-57c0-6.7,5.4-12.1,12.1-12.1l0,0c6.7,0,12.1,5.4,12.1,12.1
		v57C49,249.4,43.6,254.8,36.9,254.8z"/>
	<path class="st0" d="M248.4,254.8L248.4,254.8c-6.7,0-12.1-5.4-12.1-12.1v-25.4c0-6.7,5.4-12.1,12.1-12.1l0,0
		c6.7,0,12.1,5.4,12.1,12.1v25.4C260.5,249.4,255.1,254.8,248.4,254.8z"/>
</g>
</svg>
